<svg width="48" height="58" viewBox="0 0 48 58" fill="none" xmlns="http://www.w3.org/2000/svg">
<path d="M33.89 53.49H13.89C11.68 53.49 9.89001 51.7 9.89001 49.49V9.48999C9.89001 7.27999 11.68 5.48999 13.89 5.48999H33.89C36.1 5.48999 37.89 7.27999 37.89 9.48999V49.49C37.89 51.7 36.1 53.49 33.89 53.49Z" stroke="#606060" stroke-width="2" stroke-miterlimit="10" stroke-linecap="round"/>
<path d="M9.89001 13.49C9.89001 11.28 11.68 9.48999 13.89 9.48999H33.89C36.1 9.48999 37.89 11.28 37.89 13.49" stroke="#606060" stroke-width="2" stroke-miterlimit="10" stroke-linecap="round"/>
<path d="M37.89 45.49C37.89 47.7 36.1 49.49 33.89 49.49H13.89C11.68 49.49 9.89001 47.7 9.89001 45.49" stroke="#606060" stroke-width="2" stroke-miterlimit="10" stroke-linecap="round"/>
<path d="M24.34 34.69V33.59H24.89C28.51 33.59 31.46 30.65 31.46 27.04C31.46 23.43 28.51 20.49 24.89 20.49H17.21V19.39H24.89C27.31 19.39 29.55 20.51 31.02 22.45C32.03 23.79 32.57 25.37 32.57 27.04C32.57 28.71 32.04 30.29 31.02 31.63C29.55 33.58 27.31 34.69 24.89 34.69H24.34V34.69Z" stroke="#606060" stroke-miterlimit="10" stroke-linecap="round"/>
<path d="M17.22 42.3V26.49H24.9C25.19 26.49 25.45 26.75 25.45 27.04C25.45 27.33 25.19 27.59 24.9 27.59H18.33V42.3H17.22Z" stroke="#606060" stroke-miterlimit="10" stroke-linecap="round"/>
</svg>
