<svg width="25" height="24" viewBox="0 0 25 24" fill="none" xmlns="http://www.w3.org/2000/svg">
<path d="M12 21C16.9706 21 21 16.9706 21 12C21 7.02944 16.9706 3 12 3C7.02944 3 3 7.02944 3 12C3 16.9706 7.02944 21 12 21Z" fill="#13D4E8"/>
<path d="M15.89 8.9698C15.58 8.6598 15.08 8.6598 14.77 8.9698L10.44 13.2998L9.12001 11.9798C8.91001 11.7698 8.48001 11.8398 8.18001 12.1498C7.87001 12.4598 7.79001 12.8798 8.00001 13.0898L9.88001 14.9698L10.05 15.1398C10.26 15.3498 10.69 15.2798 10.99 14.9698L15.88 10.0798C16.2 9.7698 16.2 9.2698 15.89 8.9698Z" fill="white"/>
</svg>
