<svg width="67" height="62" viewBox="0 0 67 62" fill="none" xmlns="http://www.w3.org/2000/svg">
<g clip-path="url(#clip0_143_2)">
<path d="M56.7547 41.7995C62.0387 29.0431 55.9811 14.4184 43.2247 9.13446C30.4683 3.85048 15.8437 9.90807 10.5597 22.6645C5.2757 35.4209 11.3333 50.0455 24.0897 55.3295C36.8461 60.6134 51.4707 54.5559 56.7547 41.7995Z" fill="#13D4E8"/>
<path d="M19.58 34.78C26.49 32.25 29.63 29.27 30.7 26.69C31.55 24.64 33.66 24.7 33.66 24.7C33.66 24.7 35.77 24.63 36.62 26.69C37.69 29.27 40.83 32.25 47.74 34.78C54.06 37.09 53.66 40.66 53.66 40.66L33.66 29.79L13.66 40.66C13.66 40.66 13.26 37.09 19.58 34.78Z" fill="white"/>
<path d="M16.76 37.4299V40.4499C16.76 41.0399 17.24 41.5199 17.83 41.5199H49.5C50.09 41.5199 50.57 41.0399 50.57 40.4499V37.4299" stroke="white" stroke-width="0.75" stroke-miterlimit="10" stroke-linecap="round"/>
<path d="M31.11 20.3899L32.27 19.2299C33.03 18.4699 34.25 18.4699 35.01 19.2299C35.77 19.9899 35.77 21.2099 35.01 21.9699L33.85 23.1299V24.8899" stroke="white" stroke-width="0.75" stroke-miterlimit="10" stroke-linecap="round"/>
</g>
<defs>
<clipPath id="clip0_143_2">
<rect width="67" height="62" fill="white"/>
</clipPath>
</defs>
</svg>
