<svg width="89" height="128" viewBox="0 0 89 128" fill="none" xmlns="http://www.w3.org/2000/svg">
<path d="M42.04 84.3001V78.7301H44.83C63.11 78.7301 77.99 63.9101 77.99 45.6801C77.99 27.4501 63.11 12.6401 44.83 12.6401H6.09003V7.08008H44.83C57.06 7.08008 68.34 12.7101 75.77 22.5401C80.87 29.2801 83.57 37.2901 83.57 45.6901C83.57 54.0901 80.87 62.1001 75.77 68.8401C68.34 78.6701 57.06 84.3001 44.83 84.3001H42.04Z" fill="black"/>
<path d="M6.09003 122.71V42.9102H44.83C46.29 42.9102 47.62 44.2402 47.62 45.6902C47.62 47.1402 46.29 48.4702 44.83 48.4702H11.67V122.71H6.09003Z" fill="black"/>
</svg>
