<svg width="19" height="19" viewBox="0 0 19 19" fill="none" xmlns="http://www.w3.org/2000/svg">
<path d="M9.48 2.46001C11.9 2.46001 12.19 2.47001 13.15 2.51001C14.03 2.55001 14.52 2.70001 14.83 2.82001C15.25 2.99001 15.56 3.18001 15.87 3.50001C16.19 3.82001 16.38 4.12001 16.55 4.54001C16.67 4.86001 16.82 5.34001 16.86 6.22001C16.9 7.18001 16.91 7.46001 16.91 9.89001C16.91 12.31 16.9 12.6 16.86 13.56C16.82 14.45 16.67 14.93 16.55 15.25C16.39 15.67 16.19 15.98 15.87 16.29C15.55 16.61 15.25 16.8 14.83 16.97C14.51 17.09 14.03 17.24 13.15 17.28C12.19 17.32 11.91 17.33 9.48 17.33C7.06 17.33 6.77 17.32 5.82 17.28C4.94 17.24 4.45 17.09 4.14 16.97C3.7 16.8 3.4 16.6 3.08 16.29C2.76 15.97 2.57 15.67 2.4 15.25C2.28 14.93 2.13 14.45 2.09 13.56C2.05 12.6 2.04 12.32 2.04 9.89001C2.04 7.47001 2.05 7.18001 2.09 6.22001C2.13 5.34001 2.28 4.86001 2.4 4.54001C2.57 4.12001 2.77 3.82001 3.08 3.50001C3.4 3.18001 3.7 2.99001 4.13 2.82001C4.45 2.70001 4.93 2.55001 5.81 2.51001C6.77 2.47001 7.06 2.46001 9.48 2.46001ZM9.48 0.820007C7.02 0.820007 6.71 0.830007 5.74 0.870007C4.77 0.910007 4.12 1.07001 3.54 1.29001C2.94 1.52001 2.44 1.83001 1.93 2.34001C1.43 2.84001 1.12 3.35001 0.880004 3.95001C0.660004 4.53001 0.500004 5.19001 0.460004 6.15001C0.420004 7.12001 0.410004 7.43001 0.410004 9.89001C0.410004 12.35 0.420004 12.66 0.460004 13.63C0.500004 14.6 0.660004 15.26 0.880004 15.83C1.11 16.43 1.42 16.93 1.93 17.44C2.43 17.94 2.94 18.26 3.54 18.49C4.12 18.71 4.78 18.87 5.74 18.91C6.71 18.95 7.02 18.96 9.48 18.96C11.94 18.96 12.25 18.95 13.22 18.91C14.19 18.87 14.84 18.71 15.42 18.49C16.02 18.26 16.52 17.95 17.03 17.44C17.53 16.94 17.84 16.43 18.08 15.83C18.3 15.25 18.46 14.59 18.5 13.63C18.54 12.66 18.55 12.35 18.55 9.89001C18.55 7.43001 18.54 7.12001 18.5 6.15001C18.46 5.18001 18.3 4.52001 18.08 3.95001C17.85 3.35001 17.54 2.85001 17.03 2.34001C16.53 1.83001 16.02 1.52001 15.42 1.29001C14.84 1.07001 14.18 0.910007 13.22 0.870007C12.25 0.830007 11.94 0.820007 9.48 0.820007Z" fill="white"/>
<path d="M9.48001 5.24002C6.91001 5.24002 4.82001 7.33002 4.82001 9.90002C4.82001 12.47 6.91001 14.56 9.48001 14.56C12.05 14.56 14.14 12.47 14.14 9.90002C14.13 7.32002 12.05 5.24002 9.48001 5.24002ZM9.48001 12.92C7.81001 12.92 6.46001 11.57 6.46001 9.90002C6.46001 8.23002 7.81001 6.88002 9.48001 6.88002C11.15 6.88002 12.5 8.23002 12.5 9.90002C12.5 11.56 11.15 12.92 9.48001 12.92Z" fill="white"/>
<path d="M15.41 5.05002C15.41 5.65002 14.92 6.14002 14.32 6.14002C13.72 6.14002 13.23 5.65002 13.23 5.05002C13.23 4.45002 13.72 3.96002 14.32 3.96002C14.92 3.96002 15.41 4.45002 15.41 5.05002Z" fill="white"/>
</svg>
