<svg width="24" height="26" viewBox="0 0 24 26" fill="none" xmlns="http://www.w3.org/2000/svg">
<path d="M12.11 5.55993C14.53 5.55993 14.82 5.56993 15.78 5.60993C16.66 5.64993 17.15 5.79993 17.46 5.91993C17.88 6.08993 18.19 6.27993 18.5 6.59993C18.82 6.91993 19.01 7.21993 19.18 7.63993C19.3 7.95993 19.45 8.43993 19.49 9.31993C19.53 10.2799 19.54 10.5599 19.54 12.9899C19.54 15.4099 19.53 15.6999 19.49 16.6599C19.45 17.5499 19.3 18.0299 19.18 18.3499C19.02 18.7699 18.82 19.0799 18.5 19.3899C18.18 19.7099 17.88 19.8999 17.46 20.0699C17.14 20.1899 16.66 20.3399 15.78 20.3799C14.82 20.4199 14.54 20.4299 12.11 20.4299C9.68998 20.4299 9.39998 20.4199 8.44998 20.3799C7.56998 20.3399 7.07998 20.1899 6.76998 20.0699C6.34998 19.9099 6.03998 19.7099 5.72998 19.3899C5.40998 19.0699 5.21998 18.7699 5.04998 18.3499C4.92998 18.0299 4.77998 17.5499 4.73998 16.6599C4.67998 15.7099 4.66998 15.4199 4.66998 12.9999C4.66998 10.5799 4.67998 10.2899 4.71998 9.32993C4.75998 8.44993 4.90998 7.96993 5.02998 7.64993C5.19998 7.22993 5.39998 6.92993 5.70998 6.60993C6.02998 6.28993 6.32998 6.09993 6.74998 5.92993C7.06998 5.80993 7.54998 5.65993 8.42998 5.61993C9.39998 5.56993 9.68998 5.55993 12.11 5.55993ZM12.11 3.92993C9.64998 3.92993 9.33998 3.93993 8.36998 3.97993C7.39998 4.01993 6.74998 4.17993 6.16998 4.39993C5.56998 4.62993 5.06998 4.93993 4.55998 5.44993C4.05998 5.94993 3.74998 6.45993 3.50998 7.05993C3.28998 7.63993 3.12998 8.29993 3.08998 9.25993C3.04998 10.2299 3.03998 10.5399 3.03998 12.9999C3.03998 15.4599 3.04998 15.7699 3.08998 16.7399C3.12998 17.7099 3.28998 18.3699 3.50998 18.9399C3.73998 19.5399 4.04998 20.0399 4.55998 20.5499C5.05998 21.0499 5.56998 21.3699 6.16998 21.5999C6.74998 21.8199 7.40998 21.9799 8.36998 22.0199C9.33998 22.0599 9.64998 22.0699 12.11 22.0699C14.57 22.0699 14.88 22.0599 15.85 22.0199C16.82 21.9799 17.47 21.8199 18.05 21.5999C18.65 21.3699 19.15 21.0599 19.66 20.5499C20.16 20.0499 20.47 19.5399 20.71 18.9399C20.93 18.3599 21.09 17.6999 21.13 16.7399C21.17 15.7699 21.18 15.4599 21.18 12.9999C21.18 10.5399 21.17 10.2299 21.13 9.25993C21.09 8.28993 20.93 7.62993 20.71 7.05993C20.48 6.45993 20.17 5.95993 19.66 5.44993C19.16 4.93993 18.65 4.62993 18.05 4.39993C17.47 4.17993 16.81 4.01993 15.85 3.97993C14.88 3.93993 14.57 3.92993 12.11 3.92993Z" fill="black"/>
<path d="M12.11 8.33984C9.53995 8.33984 7.44995 10.4298 7.44995 12.9998C7.44995 15.5698 9.53995 17.6598 12.11 17.6598C14.68 17.6598 16.77 15.5698 16.77 12.9998C16.77 10.4298 14.68 8.33984 12.11 8.33984ZM12.11 16.0198C10.44 16.0198 9.08995 14.6698 9.08995 12.9998C9.08995 11.3298 10.44 9.97984 12.11 9.97984C13.78 9.97984 15.13 11.3298 15.13 12.9998C15.13 14.6698 13.78 16.0198 12.11 16.0198Z" fill="black"/>
<path d="M18.04 8.15982C18.04 8.75982 17.55 9.24982 16.95 9.24982C16.35 9.24982 15.86 8.75982 15.86 8.15982C15.86 7.55982 16.35 7.06982 16.95 7.06982C17.55 7.06982 18.04 7.55982 18.04 8.15982Z" fill="black"/>
</svg>
