<svg width="201" height="36" viewBox="0 0 201 36" fill="none" xmlns="http://www.w3.org/2000/svg">
<path d="M71.94 10.46H59.35V0.299988H57.61V23.09H59.35V12.2H71.94V23.09H73.68V0.299988H71.94V10.46Z" fill="black"/>
<path d="M103.61 10.48L103.27 10.33C100.72 9.19001 98.7 8.29001 98.7 5.48001C98.7 3.35001 100.66 1.74001 103.26 1.74001C105.42 1.74001 107.2 3.27001 107.49 5.37001L107.56 5.86001H109.3L109.22 5.23001C108.87 2.25001 106.3 0.0100098 103.26 0.0100098C99.67 0.0100098 96.96 2.36001 96.96 5.48001C96.96 9.45001 100 10.79 102.68 11.98C102.82 12.04 102.95 12.1 103.09 12.16C105.66 13.31 108.4 14.78 108.4 17.75C108.4 20.13 106.43 21.67 103.38 21.67C101.02 21.67 98.51 20.35 98.24 17.39L98.19 16.88H96.45L96.5 17.49C96.66 19.35 97.5 20.91 98.93 21.98C100.16 22.9 101.74 23.41 103.37 23.41C107.41 23.41 110.13 21.14 110.13 17.75C110.13 13.74 106.77 11.89 103.61 10.48Z" fill="black"/>
<path d="M117.14 0.299988H115.4V23.08H117.14V0.299988Z" fill="black"/>
<path d="M132.56 0C129.46 0 126.58 1.23 124.46 3.47C122.38 5.66 121.23 8.59 121.23 11.7C121.23 14.81 122.38 17.74 124.46 19.93C126.58 22.17 129.46 23.4 132.56 23.4C135.66 23.4 138.54 22.17 140.66 19.93C142.74 17.74 143.89 14.81 143.89 11.7C143.89 8.59 142.74 5.66 140.66 3.47C138.54 1.23 135.66 0 132.56 0ZM132.56 21.65C130.01 21.65 127.6 20.61 125.78 18.71C123.96 16.82 122.96 14.33 122.96 11.69C122.96 9.05 123.96 6.56 125.78 4.67C127.6 2.78 130.01 1.73 132.56 1.73C135.11 1.73 137.52 2.77 139.34 4.67C141.16 6.56 142.16 9.06 142.16 11.69C142.16 14.32 141.16 16.82 139.34 18.71C137.51 20.61 135.11 21.65 132.56 21.65Z" fill="black"/>
<path d="M162.83 19.68L149.14 0.299988H147.67V23.09H149.41V3.70999L163.1 23.09H164.57V0.299988H162.83V19.68Z" fill="black"/>
<path d="M170.7 2.03999H180.76V0.299988H168.96V23.09H180.77V21.35H170.7V15.03H180.84V13.29H170.7V2.03999Z" fill="black"/>
<path d="M85.14 0.299988L76.92 23.09H78.76L85.86 3.51999L92.95 23.09H94.79L86.57 0.299988H85.14Z" fill="black"/>
<path d="M51.73 2.20999C50.37 0.959989 48.39 0.299988 46 0.299988H39.49V2.03999H40.68L40.86 2.02999H46.01C51.04 2.02999 52.09 5.00999 52.09 7.49999C52.09 9.99999 51.03 12.98 46.01 12.98H41.24V12.97H39.5V23.08H41.24V14.72H46.01C48.39 14.72 50.37 14.06 51.74 12.81C53.11 11.55 53.84 9.71999 53.84 7.50999C53.82 5.30999 53.1 3.46999 51.73 2.20999Z" fill="black"/>
<path d="M194.36 14.83C197.41 14.04 199.49 11.17 199.49 7.67C199.49 5.52 198.78 3.67 197.44 2.3C196.18 1.02 194.49 0.309998 192.68 0.309998H185.16V2.05H186.35L186.53 2.04H192.69C196.02 2.04 197.77 4.87 197.77 7.67C197.77 10.47 196.03 13.3 192.69 13.3H185.16V15.04H192.42L197.91 23.09H200.01L194.36 14.83Z" fill="black"/>
<path d="M10.91 23.75V22.06H11.76C17.31 22.06 21.83 17.56 21.83 12.03C21.83 6.5 17.31 2 11.76 2H0V0.309998H11.76C15.47 0.309998 18.9 2.02 21.15 5C22.7 7.05 23.52 9.48 23.52 12.03C23.52 14.58 22.7 17.01 21.15 19.06C18.89 22.04 15.47 23.75 11.76 23.75H10.91Z" fill="black"/>
<path d="M0 35.41V11.18H11.76C12.2 11.18 12.61 11.58 12.61 12.02C12.61 12.46 12.21 12.86 11.76 12.86H1.69V35.41H0Z" fill="black"/>
</svg>
