<svg width="130" height="26" viewBox="0 0 130 26" fill="none" xmlns="http://www.w3.org/2000/svg">
<path d="M17.76 12.76H12.49V8.5H11.76V18.05H12.49V13.49H17.76V18.05H18.49V8.5H17.76V12.76Z" fill="black"/>
<path d="M31.03 12.77L30.89 12.71C29.82 12.23 28.98 11.86 28.98 10.68C28.98 9.79001 29.8 9.11 30.89 9.11C31.8 9.11 32.54 9.75 32.66 10.63L32.69 10.83H33.42L33.39 10.57C33.24 9.32 32.17 8.38 30.89 8.38C29.39 8.38 28.25 9.37 28.25 10.67C28.25 12.33 29.52 12.89 30.65 13.39C30.71 13.42 30.76 13.44 30.82 13.47C31.9 13.95 33.04 14.57 33.04 15.81C33.04 16.81 32.21 17.45 30.94 17.45C29.95 17.45 28.9 16.9 28.79 15.66L28.77 15.45H28.04L28.06 15.71C28.13 16.49 28.48 17.14 29.08 17.59C29.59 17.98 30.26 18.19 30.94 18.19C32.63 18.19 33.77 17.24 33.77 15.82C33.76 14.13 32.35 13.36 31.03 12.77Z" fill="black"/>
<path d="M36.7 8.5H35.97V18.05H36.7V8.5Z" fill="black"/>
<path d="M43.16 8.38C41.86 8.38 40.65 8.9 39.77 9.83C38.9 10.75 38.42 11.97 38.42 13.28C38.42 14.58 38.9 15.81 39.77 16.73C40.66 17.67 41.86 18.18 43.16 18.18C44.46 18.18 45.67 17.66 46.55 16.73C47.42 15.81 47.9 14.59 47.9 13.28C47.9 11.98 47.42 10.75 46.55 9.83C45.66 8.89 44.46 8.38 43.16 8.38ZM43.16 17.45C42.09 17.45 41.08 17.01 40.32 16.22C39.56 15.43 39.14 14.38 39.14 13.28C39.14 12.18 39.56 11.13 40.32 10.34C41.08 9.55 42.09 9.11 43.16 9.11C44.23 9.11 45.24 9.55 46 10.34C46.76 11.13 47.18 12.18 47.18 13.28C47.18 14.38 46.76 15.43 46 16.22C45.24 17.01 44.23 17.45 43.16 17.45Z" fill="black"/>
<path d="M55.84 16.62L50.11 8.5H49.49V18.05H50.22V9.93L55.96 18.05H56.57V8.5H55.84V16.62Z" fill="black"/>
<path d="M59.14 9.23H63.35V8.5H58.41V18.05H63.36V17.32H59.14V14.67H63.39V13.95H59.14V9.23Z" fill="black"/>
<path d="M23.29 8.5L19.85 18.05H20.62L23.59 9.85L26.56 18.05H27.33L23.89 8.5H23.29Z" fill="black"/>
<path d="M9.28998 9.3C8.71998 8.78 7.88998 8.5 6.88998 8.5H4.16998V9.23H4.66998H4.73998H6.89998C9.00998 9.23 9.44998 10.48 9.44998 11.52C9.44998 12.57 9.00998 13.81 6.89998 13.81H4.89998H4.16998V18.04H4.89998V14.54H6.89998C7.89998 14.54 8.72998 14.26 9.29998 13.74C9.86998 13.21 10.18 12.44 10.18 11.52C10.17 10.6 9.86998 9.83 9.28998 9.3Z" fill="black"/>
<path d="M69.05 14.59C70.33 14.26 71.2 13.06 71.2 11.59C71.2 10.69 70.9 9.91001 70.34 9.34001C69.81 8.80001 69.1 8.51001 68.34 8.51001H65.2V9.24001H65.7H65.77H68.35C69.75 9.24001 70.48 10.43 70.48 11.6C70.48 12.77 69.75 13.96 68.35 13.96H65.2V14.69H68.24L70.54 18.06H71.42L69.05 14.59Z" fill="black"/>
<path d="M98.04 8.38C96.74 8.38 95.53 8.9 94.65 9.83C93.78 10.75 93.3 11.97 93.3 13.28C93.3 14.58 93.78 15.81 94.65 16.73C95.54 17.67 96.74 18.18 98.04 18.18C99.34 18.18 100.55 17.66 101.43 16.73C102.3 15.81 102.78 14.59 102.78 13.28C102.78 11.98 102.3 10.75 101.43 9.83C100.55 8.89 99.34 8.38 98.04 8.38ZM98.04 17.45C96.97 17.45 95.96 17.01 95.2 16.22C94.44 15.43 94.02 14.38 94.02 13.28C94.02 12.18 94.44 11.13 95.2 10.34C95.96 9.55 96.97 9.11 98.04 9.11C99.11 9.11 100.12 9.55 100.88 10.34C101.64 11.13 102.06 12.18 102.06 13.28C102.06 14.38 101.64 15.43 100.88 16.22C100.12 17.01 99.11 17.45 98.04 17.45Z" fill="black"/>
<path d="M84.29 9.3C83.72 8.78 82.89 8.5 81.89 8.5H79.16V9.23H79.66H79.73H81.89C84 9.23 84.44 10.48 84.44 11.52C84.44 12.57 84 13.81 81.89 13.81H79.89H79.16V18.04H79.89V14.54H81.89C82.89 14.54 83.72 14.26 84.29 13.74C84.86 13.21 85.17 12.44 85.17 11.52C85.17 10.6 84.86 9.83 84.29 9.3Z" fill="black"/>
<path d="M90 14.59C91.28 14.26 92.15 13.06 92.15 11.59C92.15 10.69 91.85 9.91001 91.29 9.34001C90.76 8.80001 90.05 8.51001 89.29 8.51001H86.14V9.24001H86.64H86.71H89.29C90.69 9.24001 91.42 10.43 91.42 11.6C91.42 12.77 90.69 13.96 89.29 13.96H86.14V14.69H89.18L91.48 18.06H92.36L90 14.59Z" fill="black"/>
<path d="M118.05 21.02C122.325 21.02 125.79 17.5547 125.79 13.28C125.79 9.00529 122.325 5.53998 118.05 5.53998C113.775 5.53998 110.31 9.00529 110.31 13.28C110.31 17.5547 113.775 21.02 118.05 21.02Z" fill="black"/>
<path d="M121.39 10.67C121.12 10.4 120.69 10.4 120.43 10.67L116.7 14.4L115.57 13.27C115.39 13.09 115.02 13.15 114.76 13.42C114.49 13.69 114.43 14.05 114.61 14.23L116.23 15.85L116.38 16C116.56 16.18 116.93 16.12 117.19 15.85L121.4 11.64C121.66 11.36 121.66 10.93 121.39 10.67Z" fill="white"/>
</svg>
