<svg width="130" height="26" viewBox="0 0 130 26" fill="none" xmlns="http://www.w3.org/2000/svg">
<path d="M17.76 12.76H12.49V8.5H11.76V18.05H12.49V13.49H17.76V18.05H18.49V8.5H17.76V12.76Z" fill="black"/>
<path d="M31.03 12.7699L30.89 12.7099C29.82 12.2299 28.98 11.8599 28.98 10.6799C28.98 9.78988 29.8 9.10988 30.89 9.10988C31.8 9.10988 32.54 9.74988 32.66 10.6299L32.69 10.8299H33.42L33.39 10.5699C33.24 9.31988 32.17 8.37988 30.89 8.37988C29.39 8.37988 28.25 9.36988 28.25 10.6699C28.25 12.3299 29.52 12.8899 30.65 13.3899C30.71 13.4199 30.76 13.4399 30.82 13.4699C31.9 13.9499 33.04 14.5699 33.04 15.8099C33.04 16.8099 32.21 17.4499 30.94 17.4499C29.95 17.4499 28.9 16.8999 28.79 15.6599L28.77 15.4499H28.04L28.06 15.7099C28.13 16.4899 28.48 17.1399 29.08 17.5899C29.59 17.9799 30.26 18.1899 30.94 18.1899C32.63 18.1899 33.77 17.2399 33.77 15.8199C33.76 14.1299 32.35 13.3599 31.03 12.7699Z" fill="black"/>
<path d="M36.7 8.5H35.97V18.05H36.7V8.5Z" fill="black"/>
<path d="M43.16 8.37988C41.86 8.37988 40.65 8.89988 39.77 9.82988C38.9 10.7499 38.42 11.9699 38.42 13.2799C38.42 14.5799 38.9 15.8099 39.77 16.7299C40.66 17.6699 41.86 18.1799 43.16 18.1799C44.46 18.1799 45.67 17.6599 46.55 16.7299C47.42 15.8099 47.9 14.5899 47.9 13.2799C47.9 11.9799 47.42 10.7499 46.55 9.82988C45.66 8.88988 44.46 8.37988 43.16 8.37988ZM43.16 17.4499C42.09 17.4499 41.08 17.0099 40.32 16.2199C39.56 15.4299 39.14 14.3799 39.14 13.2799C39.14 12.1799 39.56 11.1299 40.32 10.3399C41.08 9.54988 42.09 9.10988 43.16 9.10988C44.23 9.10988 45.24 9.54988 46 10.3399C46.76 11.1299 47.18 12.1799 47.18 13.2799C47.18 14.3799 46.76 15.4299 46 16.2199C45.24 17.0099 44.23 17.4499 43.16 17.4499Z" fill="black"/>
<path d="M55.84 16.62L50.11 8.5H49.49V18.05H50.22V9.93L55.96 18.05H56.57V8.5H55.84V16.62Z" fill="black"/>
<path d="M59.14 9.23H63.35V8.5H58.41V18.05H63.36V17.32H59.14V14.67H63.39V13.95H59.14V9.23Z" fill="black"/>
<path d="M23.29 8.5L19.85 18.05H20.62L23.59 9.85L26.56 18.05H27.33L23.89 8.5H23.29Z" fill="black"/>
<path d="M9.28998 9.3C8.71998 8.78 7.88998 8.5 6.88998 8.5H4.16998V9.23H4.66998H4.73998H6.89998C9.00998 9.23 9.44998 10.48 9.44998 11.52C9.44998 12.57 9.00998 13.81 6.89998 13.81H4.89998H4.16998V18.04H4.89998V14.54H6.89998C7.89998 14.54 8.72998 14.26 9.29998 13.74C9.86998 13.21 10.18 12.44 10.18 11.52C10.17 10.6 9.86998 9.83 9.28998 9.3Z" fill="black"/>
<path d="M69.05 14.5898C70.33 14.2598 71.2 13.0598 71.2 11.5898C71.2 10.6898 70.9 9.90977 70.34 9.33977C69.81 8.79977 69.1 8.50977 68.34 8.50977H65.2V9.23977H65.7H65.77H68.35C69.75 9.23977 70.48 10.4298 70.48 11.5998C70.48 12.7698 69.75 13.9598 68.35 13.9598H65.2V14.6898H68.24L70.54 18.0598H71.42L69.05 14.5898Z" fill="black"/>
<path d="M98.04 8.37988C96.74 8.37988 95.53 8.89988 94.65 9.82988C93.78 10.7499 93.3 11.9699 93.3 13.2799C93.3 14.5799 93.78 15.8099 94.65 16.7299C95.54 17.6699 96.74 18.1799 98.04 18.1799C99.34 18.1799 100.55 17.6599 101.43 16.7299C102.3 15.8099 102.78 14.5899 102.78 13.2799C102.78 11.9799 102.3 10.7499 101.43 9.82988C100.55 8.88988 99.34 8.37988 98.04 8.37988ZM98.04 17.4499C96.97 17.4499 95.96 17.0099 95.2 16.2199C94.44 15.4299 94.02 14.3799 94.02 13.2799C94.02 12.1799 94.44 11.1299 95.2 10.3399C95.96 9.54988 96.97 9.10988 98.04 9.10988C99.11 9.10988 100.12 9.54988 100.88 10.3399C101.64 11.1299 102.06 12.1799 102.06 13.2799C102.06 14.3799 101.64 15.4299 100.88 16.2199C100.12 17.0099 99.11 17.4499 98.04 17.4499Z" fill="black"/>
<path d="M84.29 9.3C83.72 8.78 82.89 8.5 81.89 8.5H79.16V9.23H79.66H79.73H81.89C84 9.23 84.44 10.48 84.44 11.52C84.44 12.57 84 13.81 81.89 13.81H79.89H79.16V18.04H79.89V14.54H81.89C82.89 14.54 83.72 14.26 84.29 13.74C84.86 13.21 85.17 12.44 85.17 11.52C85.17 10.6 84.86 9.83 84.29 9.3Z" fill="black"/>
<path d="M90 14.5898C91.28 14.2598 92.15 13.0598 92.15 11.5898C92.15 10.6898 91.85 9.90977 91.29 9.33977C90.76 8.79977 90.05 8.50977 89.29 8.50977H86.14V9.23977H86.64H86.71H89.29C90.69 9.23977 91.42 10.4298 91.42 11.5998C91.42 12.7698 90.69 13.9598 89.29 13.9598H86.14V14.6898H89.18L91.48 18.0598H92.36L90 14.5898Z" fill="black"/>
<path d="M118.05 21.02C122.325 21.02 125.79 17.5547 125.79 13.28C125.79 9.00535 122.325 5.54004 118.05 5.54004C113.775 5.54004 110.31 9.00535 110.31 13.28C110.31 17.5547 113.775 21.02 118.05 21.02Z" fill="black"/>
<path d="M121.39 10.6703C121.12 10.4003 120.69 10.4003 120.43 10.6703L116.7 14.4003L115.57 13.2703C115.39 13.0903 115.02 13.1503 114.76 13.4203C114.49 13.6903 114.43 14.0503 114.61 14.2303L116.23 15.8503L116.38 16.0003C116.56 16.1803 116.93 16.1203 117.19 15.8503L121.4 11.6403C121.66 11.3603 121.66 10.9303 121.39 10.6703Z" fill="white"/>
</svg>
