<svg width="426" height="72" viewBox="0 0 426 72" fill="none" xmlns="http://www.w3.org/2000/svg">
<path d="M58.09 34.5801H40.77V20.6201H38.38V51.9301H40.77V36.9701H58.09V51.9301H60.48V20.6201H58.09V34.5801Z" fill="white"/>
<path d="M101.61 34.5999L101.14 34.3899C97.63 32.8299 94.86 31.5899 94.86 27.7199C94.86 24.7899 97.55 22.5799 101.13 22.5799C104.1 22.5799 106.55 24.6799 106.94 27.5699L107.03 28.2399H109.42L109.32 27.3699C108.83 23.2799 105.31 20.1899 101.13 20.1899C96.19 20.1899 92.47 23.4199 92.47 27.7099C92.47 33.1599 96.65 35.0099 100.33 36.6399C100.52 36.7199 100.7 36.8099 100.89 36.8899C104.42 38.4699 108.19 40.4899 108.19 44.5699C108.19 47.8399 105.48 49.9599 101.29 49.9599C98.05 49.9599 94.6 48.1399 94.22 44.0799L94.15 43.3799H91.76L91.83 44.2199C92.05 46.7799 93.2 48.9199 95.17 50.3899C96.86 51.6499 99.03 52.3499 101.28 52.3499C106.83 52.3499 110.57 49.2299 110.57 44.5699C110.58 39.0899 105.95 36.5499 101.61 34.5999Z" fill="white"/>
<path d="M120.2 20.6201H117.81V51.9401H120.2V20.6201Z" fill="white"/>
<path d="M141.4 20.1997C137.13 20.1997 133.18 21.8897 130.26 24.9597C127.4 27.9697 125.82 31.9897 125.82 36.2697C125.82 40.5497 127.4 44.5697 130.26 47.5797C133.18 50.6497 137.13 52.3397 141.4 52.3397C145.67 52.3397 149.62 50.6497 152.54 47.5797C155.4 44.5697 156.98 40.5497 156.98 36.2697C156.98 31.9897 155.4 27.9697 152.54 24.9597C149.62 21.8897 145.66 20.1997 141.4 20.1997ZM141.4 49.9597C137.89 49.9597 134.59 48.5297 132.09 45.9197C129.59 43.3197 128.22 39.8897 128.22 36.2697C128.22 32.6497 129.59 29.2197 132.09 26.6197C134.59 24.0197 137.9 22.5797 141.4 22.5797C144.91 22.5797 148.21 24.0097 150.71 26.6197C153.21 29.2197 154.58 32.6497 154.58 36.2697C154.58 39.8897 153.21 43.3197 150.71 45.9197C148.21 48.5297 144.9 49.9597 141.4 49.9597Z" fill="white"/>
<path d="M183.01 47.2501L164.19 20.6201H162.17V51.9301H164.56V25.3001L183.38 51.9301H185.4V20.6201H183.01V47.2501Z" fill="white"/>
<path d="M193.82 23.0101H207.65V20.6201H191.44V51.9301H207.66V49.5401H193.82V40.8601H207.76V38.4701H193.82V23.0101Z" fill="white"/>
<path d="M76.22 20.6201L64.93 51.9301H67.46L77.21 25.0501L86.95 51.9301H89.48L78.19 20.6201H76.22Z" fill="white"/>
<path d="M30.3 23.2501C28.43 21.5301 25.71 20.6201 22.43 20.6201H13.48V23.0201H15.11L15.35 23.0101H22.43C29.34 23.0101 30.79 27.1001 30.79 30.5301C30.79 33.9601 29.34 38.0601 22.43 38.0601H15.87V38.0401H13.48V51.9301H15.87V40.4501H22.43C25.71 40.4501 28.43 39.5401 30.3 37.8201C32.19 36.0901 33.18 33.5701 33.18 30.5301C33.18 27.5001 32.19 24.9801 30.3 23.2501Z" fill="white"/>
<path d="M226.35 40.5899C230.54 39.4999 233.41 35.5699 233.41 30.7399C233.41 27.7899 232.43 25.2399 230.59 23.3499C228.86 21.5799 226.53 20.6099 224.04 20.6099H213.7V23.0099H215.33L215.57 22.9999H224.03C228.61 22.9999 231.01 26.8899 231.01 30.7299C231.01 34.5699 228.61 38.4599 224.03 38.4599H213.68V40.8499H223.66L231.21 51.9199H234.09L226.35 40.5899Z" fill="white"/>
<path d="M321.45 20.1997C317.18 20.1997 313.23 21.8897 310.31 24.9597C307.45 27.9697 305.87 31.9897 305.87 36.2697C305.87 40.5497 307.45 44.5697 310.31 47.5797C313.23 50.6497 317.18 52.3397 321.45 52.3397C325.72 52.3397 329.67 50.6497 332.59 47.5797C335.45 44.5697 337.03 40.5497 337.03 36.2697C337.03 31.9897 335.45 27.9697 332.59 24.9597C329.67 21.8897 325.72 20.1997 321.45 20.1997ZM321.45 49.9597C317.94 49.9597 314.64 48.5297 312.14 45.9197C309.64 43.3197 308.27 39.8897 308.27 36.2697C308.27 32.6497 309.64 29.2197 312.14 26.6197C314.64 24.0197 317.95 22.5797 321.45 22.5797C324.96 22.5797 328.26 24.0097 330.76 26.6197C333.26 29.2197 334.63 32.6497 334.63 36.2697C334.63 39.8897 333.26 43.3197 330.76 45.9197C328.26 48.5297 324.96 49.9597 321.45 49.9597Z" fill="white"/>
<path d="M276.33 23.2501C274.46 21.5301 271.74 20.6201 268.46 20.6201H259.51V23.0201H261.14L261.38 23.0101H268.46C275.37 23.0101 276.82 27.1001 276.82 30.5301C276.82 33.9601 275.37 38.0601 268.46 38.0601H261.9V38.0401H259.51V51.9301H261.9V40.4501H268.46C271.74 40.4501 274.46 39.5401 276.33 37.8201C278.22 36.0901 279.21 33.5701 279.21 30.5301C279.21 27.5001 278.21 24.9801 276.33 23.2501Z" fill="white"/>
<path d="M295.07 40.5899C299.26 39.4999 302.13 35.5699 302.13 30.7399C302.13 27.7899 301.15 25.2399 299.31 23.3499C297.58 21.5799 295.25 20.6099 292.76 20.6099H282.43V23.0099H284.06L284.3 22.9999H292.76C297.34 22.9999 299.74 26.8899 299.74 30.7299C299.74 34.5699 297.34 38.4599 292.76 38.4599H282.41V40.8499H292.39L299.94 51.9199H302.82L295.07 40.5899Z" fill="white"/>
<path d="M410.558 45.9964C415.928 33.0308 409.771 18.1664 396.806 12.7957C383.84 7.42509 368.976 13.582 363.605 26.5476C358.235 39.5132 364.391 54.3777 377.357 59.7483C390.323 65.119 405.187 58.962 410.558 45.9964Z" fill="white"/>
<path d="M398.04 27.7096C397.17 26.8396 395.75 26.8396 394.88 27.7096L382.66 39.9296L378.94 36.2096C378.34 35.6096 377.14 35.8296 376.27 36.6996C375.4 37.5696 375.18 38.7696 375.78 39.3696L381.08 44.6696L381.57 45.1596C382.17 45.7596 383.37 45.5396 384.24 44.6696L398.04 30.8696C398.92 29.9996 398.92 28.5796 398.04 27.7096Z" fill="black"/>
</svg>
