<svg width="426" height="72" viewBox="0 0 426 72" fill="none" xmlns="http://www.w3.org/2000/svg">
<path d="M58.09 34.58H40.77V20.62H38.38V51.93H40.77V36.97H58.09V51.93H60.48V20.62H58.09V34.58Z" fill="white"/>
<path d="M101.61 34.5999L101.14 34.3899C97.63 32.8299 94.86 31.5899 94.86 27.7199C94.86 24.7899 97.55 22.5799 101.13 22.5799C104.1 22.5799 106.55 24.6799 106.94 27.5699L107.03 28.2399H109.42L109.32 27.3699C108.83 23.2799 105.31 20.1899 101.13 20.1899C96.19 20.1899 92.47 23.4199 92.47 27.7099C92.47 33.1599 96.65 35.0099 100.33 36.6399C100.52 36.7199 100.7 36.8099 100.89 36.8899C104.42 38.4699 108.19 40.4899 108.19 44.5699C108.19 47.8399 105.48 49.9599 101.29 49.9599C98.05 49.9599 94.6 48.1399 94.22 44.0799L94.15 43.3799H91.76L91.83 44.2199C92.05 46.7799 93.2 48.9199 95.17 50.3899C96.86 51.6499 99.03 52.3499 101.28 52.3499C106.83 52.3499 110.57 49.2299 110.57 44.5699C110.58 39.0899 105.95 36.5499 101.61 34.5999Z" fill="white"/>
<path d="M120.2 20.62H117.81V51.94H120.2V20.62Z" fill="white"/>
<path d="M141.4 20.2C137.13 20.2 133.18 21.8899 130.26 24.9599C127.4 27.9699 125.82 31.99 125.82 36.27C125.82 40.55 127.4 44.57 130.26 47.58C133.18 50.65 137.13 52.34 141.4 52.34C145.67 52.34 149.62 50.65 152.54 47.58C155.4 44.57 156.98 40.55 156.98 36.27C156.98 31.99 155.4 27.9699 152.54 24.9599C149.62 21.8899 145.66 20.2 141.4 20.2ZM141.4 49.9599C137.89 49.9599 134.59 48.5299 132.09 45.9199C129.59 43.3199 128.22 39.89 128.22 36.27C128.22 32.65 129.59 29.22 132.09 26.62C134.59 24.02 137.9 22.58 141.4 22.58C144.91 22.58 148.21 24.01 150.71 26.62C153.21 29.22 154.58 32.65 154.58 36.27C154.58 39.89 153.21 43.3199 150.71 45.9199C148.21 48.5299 144.9 49.9599 141.4 49.9599Z" fill="white"/>
<path d="M183.01 47.25L164.19 20.62H162.17V51.93H164.56V25.3L183.38 51.93H185.4V20.62H183.01V47.25Z" fill="white"/>
<path d="M193.82 23.01H207.65V20.62H191.44V51.93H207.66V49.54H193.82V40.86H207.76V38.47H193.82V23.01Z" fill="white"/>
<path d="M76.22 20.62L64.93 51.93H67.46L77.21 25.05L86.95 51.93H89.48L78.19 20.62H76.22Z" fill="white"/>
<path d="M30.3 23.25C28.43 21.53 25.71 20.62 22.43 20.62H13.48V23.02H15.11L15.35 23.01H22.43C29.34 23.01 30.79 27.1 30.79 30.53C30.79 33.96 29.34 38.06 22.43 38.06H15.87V38.04H13.48V51.93H15.87V40.45H22.43C25.71 40.45 28.43 39.54 30.3 37.82C32.19 36.09 33.18 33.57 33.18 30.53C33.18 27.5 32.19 24.98 30.3 23.25Z" fill="white"/>
<path d="M226.35 40.59C230.54 39.5 233.41 35.57 233.41 30.74C233.41 27.79 232.43 25.24 230.59 23.35C228.86 21.58 226.53 20.61 224.04 20.61H213.7V23.01H215.33L215.57 23H224.03C228.61 23 231.01 26.89 231.01 30.73C231.01 34.57 228.61 38.46 224.03 38.46H213.68V40.85H223.66L231.21 51.92H234.09L226.35 40.59Z" fill="white"/>
<path d="M321.45 20.2C317.18 20.2 313.23 21.8899 310.31 24.9599C307.45 27.9699 305.87 31.99 305.87 36.27C305.87 40.55 307.45 44.57 310.31 47.58C313.23 50.65 317.18 52.34 321.45 52.34C325.72 52.34 329.67 50.65 332.59 47.58C335.45 44.57 337.03 40.55 337.03 36.27C337.03 31.99 335.45 27.9699 332.59 24.9599C329.67 21.8899 325.72 20.2 321.45 20.2ZM321.45 49.9599C317.94 49.9599 314.64 48.5299 312.14 45.9199C309.64 43.3199 308.27 39.89 308.27 36.27C308.27 32.65 309.64 29.22 312.14 26.62C314.64 24.02 317.95 22.58 321.45 22.58C324.96 22.58 328.26 24.01 330.76 26.62C333.26 29.22 334.63 32.65 334.63 36.27C334.63 39.89 333.26 43.3199 330.76 45.9199C328.26 48.5299 324.96 49.9599 321.45 49.9599Z" fill="white"/>
<path d="M276.33 23.25C274.46 21.53 271.74 20.62 268.46 20.62H259.51V23.02H261.14L261.38 23.01H268.46C275.37 23.01 276.82 27.1 276.82 30.53C276.82 33.96 275.37 38.06 268.46 38.06H261.9V38.04H259.51V51.93H261.9V40.45H268.46C271.74 40.45 274.46 39.54 276.33 37.82C278.22 36.09 279.21 33.57 279.21 30.53C279.21 27.5 278.21 24.98 276.33 23.25Z" fill="white"/>
<path d="M295.07 40.59C299.26 39.5 302.13 35.57 302.13 30.74C302.13 27.79 301.15 25.24 299.31 23.35C297.58 21.58 295.25 20.61 292.76 20.61H282.43V23.01H284.06L284.3 23H292.76C297.34 23 299.74 26.89 299.74 30.73C299.74 34.57 297.34 38.46 292.76 38.46H282.41V40.85H292.39L299.94 51.92H302.82L295.07 40.59Z" fill="white"/>
<path d="M410.558 45.9966C415.928 33.031 409.771 18.1665 396.806 12.7958C383.84 7.42521 368.976 13.5821 363.605 26.5477C358.235 39.5133 364.391 54.3778 377.357 59.7485C390.323 65.1191 405.187 58.9622 410.558 45.9966Z" fill="white"/>
<path d="M398.04 27.71C397.17 26.84 395.75 26.84 394.88 27.71L382.66 39.93L378.94 36.21C378.34 35.61 377.14 35.83 376.27 36.7C375.4 37.57 375.18 38.77 375.78 39.37L381.08 44.67L381.57 45.16C382.17 45.76 383.37 45.54 384.24 44.67L398.04 30.87C398.92 30 398.92 28.58 398.04 27.71Z" fill="black"/>
</svg>
