<svg width="209" height="44" viewBox="0 0 209 44" fill="none" xmlns="http://www.w3.org/2000/svg">
<g clip-path="url(#clip0_172_46)">
<path d="M46.63 20.3601H31.4V8.08008H29.3V35.6201H31.4V22.4601H46.63V35.6201H48.73V8.08008H46.63V20.3601Z" fill="black"/>
<path d="M84.92 20.38L84.5 20.2C81.41 18.82 78.97 17.74 78.97 14.33C78.97 11.75 81.34 9.80996 84.48 9.80996C87.09 9.80996 89.25 11.66 89.59 14.2L89.67 14.79H91.77L91.68 14.03C91.25 10.43 88.15 7.70996 84.48 7.70996C80.14 7.70996 76.86 10.56 76.86 14.33C76.86 19.12 80.53 20.75 83.78 22.18C83.94 22.25 84.11 22.33 84.27 22.4C87.38 23.79 90.69 25.57 90.69 29.15C90.69 32.03 88.31 33.89 84.62 33.89C81.77 33.89 78.74 32.29 78.4 28.72L78.34 28.1H76.24L76.3 28.84C76.49 31.09 77.51 32.97 79.24 34.27C80.72 35.38 82.63 35.99 84.61 35.99C89.5 35.99 92.78 33.24 92.78 29.15C92.81 24.32 88.73 22.09 84.92 20.38Z" fill="black"/>
<path d="M101.27 8.08008H99.17V35.6301H101.27V8.08008Z" fill="black"/>
<path d="M119.92 7.70996C116.17 7.70996 112.69 9.19996 110.12 11.9C107.6 14.55 106.22 18.09 106.22 21.85C106.22 25.62 107.61 29.15 110.12 31.8C112.69 34.5 116.16 35.99 119.92 35.99C123.67 35.99 127.15 34.5 129.72 31.8C132.24 29.15 133.62 25.61 133.62 21.85C133.62 18.08 132.23 14.55 129.72 11.9C127.15 9.19996 123.67 7.70996 119.92 7.70996ZM119.92 33.89C116.84 33.89 113.93 32.63 111.73 30.34C109.53 28.05 108.32 25.04 108.32 21.85C108.32 18.66 109.53 15.65 111.73 13.36C113.93 11.07 116.84 9.80996 119.92 9.80996C123 9.80996 125.91 11.07 128.11 13.36C130.31 15.65 131.52 18.66 131.52 21.85C131.52 25.04 130.31 28.05 128.11 30.34C125.91 32.63 123 33.89 119.92 33.89Z" fill="black"/>
<path d="M156.52 31.5101L139.97 8.08008H138.19V35.6201H140.29V12.2001L156.85 35.6201H158.62V8.08008H156.52V31.5101Z" fill="black"/>
<path d="M166.04 10.1801H178.2V8.08008H163.94V35.6201H178.21V33.5201H166.04V25.8801H178.29V23.7801H166.04V10.1801Z" fill="black"/>
<path d="M62.58 8.08008L52.65 35.6201H54.87L63.46 11.9701L72.02 35.6201H74.25L64.31 8.08008H62.58Z" fill="black"/>
<path d="M22.19 10.3901C20.54 8.88008 18.15 8.08008 15.27 8.08008H7.39V10.1901H8.82L9.03 10.1801H15.26C21.34 10.1801 22.62 13.7801 22.62 16.8001C22.62 19.8201 21.34 23.4201 15.26 23.4201H9.49V23.4001H7.39V35.6201H9.49V25.5201H15.26C18.14 25.5201 20.54 24.7201 22.18 23.2101C23.84 21.6901 24.72 19.4701 24.72 16.8001C24.72 14.1301 23.84 11.9101 22.19 10.3901Z" fill="black"/>
<path d="M194.65 25.6398C198.34 24.6798 200.86 21.2198 200.86 16.9798C200.86 14.3798 200 12.1398 198.38 10.4798C196.86 8.92982 194.81 8.06982 192.62 8.06982H183.53V10.1798H184.96L185.17 10.1698H192.61C196.64 10.1698 198.75 13.5898 198.75 16.9698C198.75 20.3498 196.64 23.7698 192.61 23.7698H183.51V25.8698H192.29L198.93 35.6098H201.47L194.65 25.6398Z" fill="black"/>
</g>
<defs>
<clipPath id="clip0_172_46">
<rect width="209" height="44" fill="white"/>
</clipPath>
</defs>
</svg>
