<svg width="440" height="65" viewBox="0 0 440 65" fill="none" xmlns="http://www.w3.org/2000/svg">
<g clip-path="url(#clip0_169_2)">
<path d="M58.11 30.84H39.96V16.2H37.45V49.0299H39.96V33.34H58.11V49.0299H60.61V16.2H58.11V30.84Z" fill="black"/>
<path d="M103.74 30.86L103.25 30.64C99.57 29 96.66 27.7 96.66 23.65C96.66 20.58 99.49 18.27 103.23 18.27C106.35 18.27 108.91 20.47 109.33 23.5L109.43 24.2H111.93L111.82 23.29C111.31 19 107.62 15.76 103.23 15.76C98.06 15.76 94.15 19.15 94.15 23.65C94.15 29.36 98.53 31.3 102.4 33.01C102.6 33.1 102.79 33.18 102.99 33.27C106.69 34.92 110.64 37.05 110.64 41.32C110.64 44.75 107.8 46.97 103.41 46.97C100.01 46.97 96.4 45.06 96 40.81L95.93 40.07H93.43L93.5 40.95C93.73 43.64 94.94 45.87 97 47.42C98.77 48.74 101.04 49.47 103.41 49.47C109.23 49.47 113.15 46.19 113.15 41.32C113.15 35.56 108.29 32.91 103.74 30.86Z" fill="black"/>
<path d="M123.24 16.2H120.73V49.0299H123.24V16.2Z" fill="black"/>
<path d="M145.46 15.76C140.99 15.76 136.84 17.53 133.78 20.75C130.78 23.91 129.13 28.12 129.13 32.61C129.13 37.1 130.78 41.31 133.78 44.47C136.84 47.69 140.98 49.46 145.46 49.46C149.93 49.46 154.08 47.69 157.14 44.47C160.14 41.31 161.79 37.1 161.79 32.61C161.79 28.12 160.14 23.91 157.14 20.75C154.08 17.53 149.93 15.76 145.46 15.76ZM145.46 46.97C141.78 46.97 138.32 45.47 135.69 42.74C133.07 40.01 131.63 36.42 131.63 32.62C131.63 28.82 133.07 25.23 135.69 22.5C138.31 19.77 141.78 18.27 145.46 18.27C149.14 18.27 152.6 19.77 155.22 22.5C157.84 25.23 159.28 28.82 159.28 32.62C159.28 36.42 157.84 40.01 155.22 42.74C152.6 45.46 149.13 46.97 145.46 46.97Z" fill="black"/>
<path d="M189.08 44.1199L169.35 16.2H167.24V49.0299H169.74V21.11L189.48 49.0299H191.59V16.2H189.08V44.1199Z" fill="black"/>
<path d="M200.43 18.7099H214.92V16.2H197.92V49.0299H214.93V46.5299H200.43V37.4199H215.03V34.9199H200.43V18.7099Z" fill="black"/>
<path d="M77.12 16.2L65.28 49.0299H67.93L78.16 20.84L88.38 49.0299H91.03L79.19 16.2H77.12Z" fill="black"/>
<path d="M28.98 18.9599C27.02 17.1599 24.16 16.2 20.73 16.2H11.35V18.7099H13.06L13.31 18.7H20.73C27.98 18.7 29.5 22.99 29.5 26.59C29.5 30.19 27.98 34.4799 20.73 34.4799H13.85V34.4599H11.34V49.0299H13.85V36.99H20.73C24.17 36.99 27.02 36.0399 28.98 34.2299C30.95 32.42 32 29.78 32 26.6C32 23.41 30.95 20.7699 28.98 18.9599Z" fill="black"/>
<path d="M234.53 37.14C238.93 36 241.93 31.87 241.93 26.82C241.93 23.73 240.91 21.05 238.97 19.08C237.16 17.23 234.72 16.21 232.1 16.21H221.27V18.72H222.98L223.23 18.71H232.1C236.9 18.71 239.42 22.79 239.42 26.82C239.42 30.85 236.91 34.93 232.1 34.93H221.25V37.43H231.71L239.62 49.03H242.64L234.53 37.14Z" fill="black"/>
<path d="M334.24 15.76C329.77 15.76 325.62 17.53 322.56 20.75C319.56 23.91 317.91 28.12 317.91 32.61C317.91 37.1 319.56 41.31 322.56 44.47C325.62 47.69 329.76 49.46 334.24 49.46C338.71 49.46 342.86 47.69 345.92 44.47C348.92 41.31 350.57 37.1 350.57 32.61C350.57 28.12 348.92 23.91 345.92 20.75C342.86 17.53 338.72 15.76 334.24 15.76ZM334.24 46.97C330.56 46.97 327.1 45.47 324.47 42.74C321.85 40.01 320.41 36.42 320.41 32.62C320.41 28.82 321.85 25.23 324.47 22.5C327.09 19.77 330.56 18.27 334.24 18.27C337.92 18.27 341.38 19.77 344 22.5C346.62 25.23 348.06 28.82 348.06 32.62C348.06 36.42 346.62 40.01 344 42.74C341.39 45.46 337.92 46.97 334.24 46.97Z" fill="black"/>
<path d="M286.93 18.9599C284.97 17.1599 282.11 16.2 278.68 16.2H269.3V18.7099H271.01L271.26 18.7H278.68C285.93 18.7 287.45 22.99 287.45 26.59C287.45 30.19 285.93 34.4799 278.68 34.4799H271.8V34.4599H269.29V49.0299H271.8V36.99H278.68C282.12 36.99 284.97 36.0399 286.93 34.2299C288.91 32.42 289.95 29.77 289.95 26.59C289.95 23.41 288.91 20.7699 286.93 18.9599Z" fill="black"/>
<path d="M306.58 37.14C310.98 36 313.98 31.87 313.98 26.82C313.98 23.73 312.96 21.05 311.02 19.08C309.21 17.23 306.77 16.21 304.15 16.21H293.32V18.72H295.03L295.28 18.71H304.15C308.95 18.71 311.47 22.79 311.47 26.82C311.47 30.85 308.96 34.93 304.15 34.93H293.3V37.43H303.76L311.67 49.03H314.69L306.58 37.14Z" fill="black"/>
<path d="M427.665 42.8093C433.296 29.2161 426.841 13.6321 413.248 8.00147C399.654 2.37086 384.07 8.82581 378.44 22.419C372.809 36.0122 379.264 51.5963 392.857 57.2269C406.451 62.8575 422.035 56.4025 427.665 42.8093Z" fill="#13D4E8"/>
<path d="M414.55 23.63C413.64 22.72 412.15 22.72 411.24 23.63L398.43 36.44L394.53 32.54C393.9 31.91 392.65 32.14 391.73 33.05C390.82 33.96 390.59 35.22 391.22 35.85L396.78 41.41L397.29 41.92C397.92 42.55 399.17 42.32 400.09 41.41L414.56 26.94C415.46 26.03 415.46 24.55 414.55 23.63Z" fill="white"/>
</g>
<defs>
<clipPath id="clip0_169_2">
<rect width="440" height="65" fill="white"/>
</clipPath>
</defs>
</svg>
