<svg width="24" height="26" viewBox="0 0 24 26" fill="none" xmlns="http://www.w3.org/2000/svg">
<path d="M13.74 23.48H9.91998C7.70998 23.48 5.91998 21.69 5.91998 19.48V7.47998C5.91998 5.26998 7.70998 3.47998 9.91998 3.47998H13.74C15.95 3.47998 17.74 5.26998 17.74 7.47998V19.48C17.74 21.69 15.95 23.48 13.74 23.48Z" stroke="black" stroke-width="1.2" stroke-miterlimit="10"/>
<path d="M5.91998 7.1198C5.91998 6.1198 6.72998 5.2998 7.73998 5.2998H15.92C16.92 5.2998 17.74 6.1098 17.74 7.1198" stroke="black" stroke-width="1.2" stroke-miterlimit="10"/>
<path d="M17.74 19.8501C17.74 20.8501 16.93 21.6701 15.92 21.6701H7.73998C6.73998 21.6701 5.91998 20.8601 5.91998 19.8501" stroke="black" stroke-width="1.2" stroke-miterlimit="10"/>
<path d="M13.19 17.1199H11.83C11.08 17.1199 10.47 16.5099 10.47 15.7599V10.7599C10.47 10.0099 11.08 9.3999 11.83 9.3999H13.19" stroke="black" stroke-width="1.2" stroke-miterlimit="10"/>
<path d="M13.1899 8.93994V11.6699" stroke="black" stroke-width="1.2" stroke-miterlimit="10"/>
<path d="M13.65 11.6699H10.92" stroke="black" stroke-width="1.2" stroke-miterlimit="10"/>
<path d="M13.1899 17.5698V15.2998" stroke="black" stroke-width="1.2" stroke-miterlimit="10"/>
<path d="M13.65 14.8501H10.92" stroke="black" stroke-width="1.2" stroke-miterlimit="10"/>
</svg>
