<svg width="30" height="29" viewBox="0 0 30 29" fill="none" xmlns="http://www.w3.org/2000/svg">
<g clip-path="url(#clip0_527_2)">
<path d="M9.90977 9.13922C9.90977 9.39922 9.69976 9.60922 9.43976 9.60922H3.97977C3.71977 9.60922 3.50977 9.39922 3.50977 9.13922V3.66922C3.50977 3.40922 3.71977 3.19922 3.97977 3.19922H9.44977C9.70977 3.19922 9.91977 3.40922 9.91977 3.66922V9.13922H9.90977Z" fill="white"/>
<path d="M26.1094 7.48859C26.1094 7.76859 25.8794 7.99859 25.5994 7.99859H11.6194C11.3394 7.99859 11.1094 7.76859 11.1094 7.48859V5.31859C11.1094 5.03859 11.3394 4.80859 11.6194 4.80859H25.5994C25.8794 4.80859 26.1094 5.03859 26.1094 5.31859V7.48859V7.48859Z" fill="white"/>
<path d="M9.90977 17.1002C9.90977 17.3602 9.69976 17.5702 9.43976 17.5702H3.97977C3.71977 17.5702 3.50977 17.3602 3.50977 17.1002V11.6302C3.50977 11.3702 3.71977 11.1602 3.97977 11.1602H9.44977C9.70977 11.1602 9.91977 11.3702 9.91977 11.6302V17.1002H9.90977Z" fill="white"/>
<path d="M26.1094 15.4395C26.1094 15.7195 25.8794 15.9495 25.5994 15.9495H11.6194C11.3394 15.9495 11.1094 15.7195 11.1094 15.4395V13.2795C11.1094 12.9995 11.3394 12.7695 11.6194 12.7695H25.5994C25.8794 12.7695 26.1094 12.9995 26.1094 13.2795V15.4395V15.4395Z" fill="white"/>
<path d="M9.90977 25.0494C9.90977 25.3094 9.69976 25.5194 9.43976 25.5194H3.97977C3.71977 25.5194 3.50977 25.3094 3.50977 25.0494V19.5794C3.50977 19.3194 3.71977 19.1094 3.97977 19.1094H9.44977C9.70977 19.1094 9.91977 19.3194 9.91977 19.5794V25.0494H9.90977Z" fill="white"/>
<path d="M26.1094 23.3988C26.1094 23.6788 25.8794 23.9088 25.5994 23.9088H11.6194C11.3394 23.9088 11.1094 23.6788 11.1094 23.3988V21.2288C11.1094 20.9488 11.3394 20.7188 11.6194 20.7188H25.5994C25.8794 20.7188 26.1094 20.9488 26.1094 21.2288V23.3988V23.3988Z" fill="white"/>
</g>
<defs>
<clipPath id="clip0_527_2">
<rect width="30" height="29" fill="white"/>
</clipPath>
</defs>
</svg>
