<svg width="48" height="58" viewBox="0 0 48 58" fill="none" xmlns="http://www.w3.org/2000/svg">
<path d="M27.57 14.74H42.57C44.78 14.74 46.57 16.53 46.57 18.74V42.74C46.57 44.95 44.78 46.74 42.57 46.74H6.57001C4.36001 46.74 2.57001 44.95 2.57001 42.74V18.74C2.57001 16.53 4.36001 14.74 6.57001 14.74H21.57" stroke="#606060" stroke-width="2" stroke-miterlimit="10" stroke-linecap="round"/>
<path d="M26.57 19.74H22.57C22.02 19.74 21.57 19.29 21.57 18.74V10.74C21.57 10.19 22.02 9.73999 22.57 9.73999H26.57C27.12 9.73999 27.57 10.19 27.57 10.74V18.74C27.57 19.3 27.13 19.74 26.57 19.74Z" stroke="#606060" stroke-width="2" stroke-miterlimit="10" stroke-linecap="round"/>
<path d="M25.57 27.74H41.57" stroke="#606060" stroke-width="2" stroke-miterlimit="10" stroke-linecap="round"/>
<path d="M25.57 31.74H41.57" stroke="#606060" stroke-width="2" stroke-miterlimit="10" stroke-linecap="round"/>
<path d="M25.57 35.74H41.57" stroke="#606060" stroke-width="2" stroke-miterlimit="10" stroke-linecap="round"/>
<path d="M25.57 39.74H37.57" stroke="#606060" stroke-width="2" stroke-miterlimit="10" stroke-linecap="round"/>
<path d="M16.57 31.74H10.57C8.91001 31.74 7.57001 33.08 7.57001 34.74V39.74H19.57V34.74C19.57 33.09 18.23 31.74 16.57 31.74Z" stroke="#606060" stroke-width="2" stroke-miterlimit="10" stroke-linecap="round"/>
<path d="M13.57 27.74C15.2269 27.74 16.57 26.3968 16.57 24.74C16.57 23.0831 15.2269 21.74 13.57 21.74C11.9132 21.74 10.57 23.0831 10.57 24.74C10.57 26.3968 11.9132 27.74 13.57 27.74Z" stroke="#606060" stroke-width="2" stroke-miterlimit="10" stroke-linecap="round"/>
</svg>
