<svg width="19" height="19" viewBox="0 0 19 19" fill="none" xmlns="http://www.w3.org/2000/svg">
<path fill-rule="evenodd" clip-rule="evenodd" d="M18.15 8.62C18.03 3.84 14.09 0 9.24 0C4.45 0 0.55 3.75 0.34 8.46C0.34 8.59 0.33 8.72 0.33 8.85C0.33 10.52 0.8 12.08 1.61 13.42L0 18.16L4.93 16.59C6.21 17.29 7.67 17.69 9.23 17.69C14.15 17.69 18.14 13.73 18.14 8.85C18.16 8.77 18.16 8.69 18.15 8.62ZM9.25 16.27C7.73 16.27 6.31 15.82 5.13 15.04L2.25 15.96L3.18 13.2C2.28 11.97 1.75 10.47 1.75 8.84C1.75 8.6 1.76 8.36 1.79 8.12C2.16 4.36 5.36 1.41 9.24 1.41C13.17 1.41 16.41 4.43 16.71 8.26C16.73 8.45 16.73 8.64 16.73 8.84C16.74 12.94 13.38 16.27 9.25 16.27Z" fill="white"/>
<path fill-rule="evenodd" clip-rule="evenodd" d="M13.33 10.63C13.11 10.52 12.04 9.99999 11.84 9.92999C11.64 9.84999 11.49 9.81999 11.35 10.04C11.2 10.26 10.78 10.75 10.66 10.89C10.53 11.04 10.41 11.05 10.19 10.94C9.96999 10.83 9.26999 10.61 8.42999 9.86999C7.77999 9.29999 7.33999 8.58999 7.21999 8.36999C7.08999 8.14999 7.20999 8.03999 7.31999 7.92999C7.41999 7.82999 7.53999 7.67999 7.64999 7.54999C7.67999 7.50999 7.69999 7.47999 7.72999 7.43999C7.77999 7.35999 7.81999 7.28999 7.86999 7.17999C7.94999 7.02999 7.90999 6.90999 7.84999 6.79999C7.77999 6.67999 7.33999 5.61999 7.15999 5.17999C6.97999 4.74999 6.78999 4.81999 6.65999 4.81999C6.52999 4.81999 6.38999 4.79999 6.23999 4.79999C6.08999 4.79999 5.85999 4.84999 5.65999 5.06999C5.45999 5.28999 4.89999 5.80999 4.89999 6.87999C4.89999 7.12999 4.94999 7.37999 5.00999 7.61999C5.22999 8.37999 5.70999 9.00999 5.78999 9.11999C5.89999 9.25999 7.29999 11.52 9.51999 12.39C11.74 13.25 11.74 12.96 12.14 12.93C12.54 12.9 13.43 12.41 13.61 11.9C13.79 11.39 13.79 10.96 13.74 10.87C13.69 10.79 13.55 10.73 13.33 10.63Z" fill="white"/>
</svg>
