<svg width="24" height="26" viewBox="0 0 24 26" fill="none" xmlns="http://www.w3.org/2000/svg">
<path fill-rule="evenodd" clip-rule="evenodd" d="M20.8 12.5399C20.68 7.75992 16.74 3.91992 11.89 3.91992C7.10002 3.91992 3.20002 7.66992 2.99002 12.3799C2.99002 12.5099 2.98002 12.6399 2.98002 12.7699C2.98002 14.4399 3.45002 15.9999 4.26002 17.3399L2.65002 22.0799L7.58002 20.5099C8.86002 21.2099 10.32 21.6099 11.88 21.6099C16.8 21.6099 20.79 17.6499 20.79 12.7699C20.81 12.6899 20.81 12.6199 20.8 12.5399ZM11.9 20.1999C10.38 20.1999 8.96002 19.7499 7.78002 18.9699L4.90002 19.8899L5.83002 17.1299C4.93002 15.8999 4.40002 14.3999 4.40002 12.7699C4.40002 12.5299 4.41002 12.2899 4.44002 12.0499C4.81002 8.28992 8.01002 5.33992 11.89 5.33992C15.82 5.33992 19.06 8.35992 19.36 12.1899C19.38 12.3799 19.38 12.5699 19.38 12.7699C19.39 16.8699 16.03 20.1999 11.9 20.1999Z" fill="black"/>
<path fill-rule="evenodd" clip-rule="evenodd" d="M15.98 14.55C15.76 14.44 14.69 13.92 14.49 13.85C14.29 13.77 14.14 13.74 14 13.96C13.85 14.18 13.43 14.67 13.31 14.81C13.18 14.96 13.06 14.97 12.84 14.86C12.62 14.75 11.92 14.53 11.08 13.79C10.43 13.22 9.99005 12.51 9.87005 12.29C9.74005 12.07 9.86005 11.96 9.97005 11.85C10.07 11.75 10.19 11.6 10.3 11.47C10.33 11.43 10.35 11.4 10.38 11.36C10.43 11.28 10.47 11.21 10.52 11.1C10.6 10.95 10.56 10.83 10.5 10.72C10.45 10.61 10.01 9.53998 9.82005 9.10998C9.63005 8.66998 9.44005 8.74998 9.32005 8.74998C9.19005 8.74998 9.05005 8.72998 8.90005 8.72998C8.75005 8.72998 8.51005 8.77998 8.31005 8.99998C8.11005 9.21998 7.55005 9.73998 7.55005 10.81C7.55005 11.06 7.60005 11.31 7.66005 11.55C7.88005 12.31 8.36005 12.94 8.44005 13.05C8.55005 13.19 9.95005 15.45 12.17 16.32C14.39 17.18 14.39 16.89 14.79 16.86C15.19 16.83 16.08 16.34 16.26 15.83C16.44 15.32 16.44 14.89 16.39 14.8C16.34 14.71 16.2 14.66 15.98 14.55Z" fill="black"/>
</svg>
