<svg width="21" height="19" viewBox="0 0 21 19" fill="none" xmlns="http://www.w3.org/2000/svg">
<g clip-path="url(#clip0_173_97)">
<path d="M12.94 9.62018L17.51 5.05018C18.18 4.38018 18.18 3.29018 17.51 2.63018C16.84 1.96018 15.75 1.96018 15.09 2.63018L10.52 7.20018L5.94 2.62018C5.27 1.95018 4.18 1.95018 3.52 2.62018C2.85 3.29018 2.85 4.38018 3.52 5.04018L8.09 9.61018L3.52 14.1802C2.85 14.8502 2.85 15.9402 3.52 16.6002C4.19 17.2702 5.28 17.2702 5.94 16.6002L10.51 12.0302L15.08 16.6002C15.75 17.2702 16.84 17.2702 17.5 16.6002C18.17 15.9302 18.17 14.8402 17.5 14.1802L12.94 9.62018Z" fill="#D31111"/>
</g>
<defs>
<clipPath id="clip0_173_97">
<rect width="21" height="19" fill="white"/>
</clipPath>
</defs>
</svg>
