<svg width="28" height="20" viewBox="0 0 28 20" fill="none" xmlns="http://www.w3.org/2000/svg">
<path d="M26.76 3.48C26.46 2.33 25.56 1.43 24.42 1.12C22.36 0.559997 14.07 0.559998 14.07 0.559998C14.07 0.559998 5.79 0.559997 3.72 1.12C2.59 1.43 1.69 2.33 1.39 3.48C0.839996 5.56 0.839996 9.9 0.839996 9.9C0.839996 9.9 0.839996 14.24 1.39 16.32C1.7 17.47 2.59 18.37 3.73 18.68C5.8 19.24 14.08 19.24 14.08 19.24C14.08 19.24 22.36 19.24 24.43 18.68C25.57 18.37 26.47 17.47 26.77 16.32C27.32 14.24 27.32 9.9 27.32 9.9C27.32 9.9 27.32 5.56 26.76 3.48ZM11.37 13.83V5.96L18.29 9.9L11.37 13.83Z" fill="white"/>
</svg>
