<svg width="33" height="26" viewBox="0 0 33 26" fill="none" xmlns="http://www.w3.org/2000/svg">
<path d="M29.4 6.58016C29.1 5.43016 28.2 4.53016 27.06 4.22016C25 3.66016 16.71 3.66016 16.71 3.66016C16.71 3.66016 8.42997 3.66016 6.35997 4.22016C5.21997 4.54016 4.32997 5.44016 4.01997 6.58016C3.46997 8.66016 3.46997 13.0002 3.46997 13.0002C3.46997 13.0002 3.46997 17.3402 4.01997 19.4202C4.32997 20.5702 5.21997 21.4702 6.35997 21.7802C8.42997 22.3402 16.71 22.3402 16.71 22.3402C16.71 22.3402 24.99 22.3402 27.06 21.7802C28.2 21.4702 29.1 20.5702 29.4 19.4202C29.95 17.3402 29.95 13.0002 29.95 13.0002C29.95 13.0002 29.95 8.66016 29.4 6.58016ZM14 16.9402V9.06016L20.92 13.0002L14 16.9402Z" fill="black"/>
</svg>
